# File created by Blade
# Date/Time:  Thu Jan 22 19:13:21 2015
#---------------------------------------------------------
:version 1.10
:name HOM
:units
  mass 1.0
  length 1.000000
  angle deg
:documentation
     Acclaim Skeleton File
:root
   axis xyz
   order TX TY TZ RX RY RZ
   position 0.000000 0.000000 0.000000
   orientation 0 0 0
:bonedata
   begin
      id 1
      name RightUpLeg_dum
      direction -1.000000 0.000000 0.000000
      length 4.478084
      axis 0.0 0.0 0.0 xyz
   end
   begin
      id 2
      name LeftUpLeg_dum
      direction 1.000000 0.000000 0.000000
      length 4.478084
      axis 0.0 0.0 0.0 xyz
   end
   begin
      id 3
      name Spine_dum
      direction 0.000000 1.000000 0.000000
      length 6.068208
      axis 0.0 0.0 0.0 xyz
   end
   begin
      id 4
      name RightUpLeg
      direction 0.000000 -1.000000 0.000000
      length 16.405774
      axis 0.0 0.0 0.0 xyz
      dof rx ry rz
   end
   begin
      id 5
      name RightLeg
      direction 0.000000 -1.000000 0.000000
      length 14.644143
      axis 0.0 0.0 0.0 xyz
      dof rx ry rz
   end
   begin
      id 6
      name RightFoot
      direction 0.000000 -0.258819 0.965926
      length 5.806150
      axis 15.0 0.0 0.0 xyz
      dof rx ry rz
   end
   begin
      id 7
      name RightToeBase
      direction 0.000000 0.000000 1.000000
      length 2.952750
      axis 0.0 0.0 0.0 xyz
      dof rx ry rz
   end
   begin
      id 8
      name LeftUpLeg
      direction 0.000000 -1.000000 0.000000
      length 16.405774
      axis 0.0 0.0 0.0 xyz
      dof rx ry rz
   end
   begin
      id 9
      name LeftLeg
      direction 0.000000 -1.000000 0.000000
      length 14.644143
      axis 0.0 0.0 0.0 xyz
      dof rx ry rz
   end
   begin
      id 10
      name LeftFoot
      direction 0.000000 -0.258819 0.965926
      length 5.806150
      axis 15.0 0.0 0.0 xyz
      dof rx ry rz
   end
   begin
      id 11
      name LeftToeBase
      direction 0.000000 0.000000 1.000000
      length 2.952750
      axis 0.0 0.0 0.0 xyz
      dof rx ry rz
   end
   begin
      id 12
      name Spine
      direction 0.000000 1.000000 0.000000
      length 0.000000
      axis 0.0 0.0 0.0 xyz
      dof rx ry rz
   end
   begin
      id 13
      name Spine_dum1
      direction 0.000000 1.000000 0.000000
      length 10.013923
      axis 0.0 0.0 0.0 xyz
   end
   begin
      id 14
      name Spine_dum2
      direction 0.000000 1.000000 0.000000
      length 10.013923
      axis 0.0 0.0 0.0 xyz
   end
   begin
      id 15
      name Spine_dum3
      direction 0.000000 1.000000 0.000000
      length 15.777476
      axis 0.0 0.0 0.0 xyz
   end
   begin
      id 16
      name RightShoulder
      direction -1.000000 0.000000 0.000000
      length 7.190220
      axis 0.0 0.0 90.0 xyz
      dof rx ry rz
   end
   begin
      id 17
      name RightArm
      direction -1.000000 0.000000 0.000000
      length 10.177469
      axis 0.0 0.0 90.0 xyz
      dof rx ry rz
   end
   begin
      id 18
      name RightForeArm
      direction -1.000000 0.000000 0.000000
      length 8.392114
      axis 0.0 0.0 90.0 xyz
      dof ry rz rx
   end
   begin
      id 19
      name RightHand
      direction -1.000000 0.000000 0.000000
      length 0.000000
      axis 0.0 0.0 90.0 xyz
      dof rx ry rz
   end
   begin
      id 20
      name RightHand_dum1
      direction -1.000000 0.000000 0.000000
      length 3.937000
      axis 0.0 0.0 90.0 xyz
   end
   begin
      id 21
      name RightHand_dum2
      direction 0.000000 0.000000 0.000000
      length 0.000000
      axis 0.0 0.0 90.0 xyz
   end
   begin
      id 22
      name RightHandThumb1
      direction 0.000000 0.000000 1.000000
      length 3.937000
      axis 0.0 0.0 90.0 xyz
      dof rx rz ry
   end
   begin
      id 23
      name LeftShoulder
      direction 1.000000 0.000000 0.000000
      length 7.190220
      axis 0.0 0.0 -90.0 xyz
      dof rx ry rz
   end
   begin
      id 24
      name LeftArm
      direction 1.000000 0.000000 0.000000
      length 10.177469
      axis 0.0 0.0 -90.0 xyz
      dof rx ry rz
   end
   begin
      id 25
      name LeftForeArm
      direction 1.000000 0.000000 0.000000
      length 8.392114
      axis 0.0 0.0 -90.0 xyz
      dof ry rz rx
   end
   begin
      id 26
      name LeftHand
      direction 1.000000 0.000000 0.000000
      length 0.000000
      axis 0.0 0.0 -90.0 xyz
      dof rx ry rz
   end
   begin
      id 27
      name LeftHand_dum1
      direction 1.000000 0.000000 0.000000
      length 3.937000
      axis 0.0 0.0 -90.0 xyz
   end
   begin
      id 28
      name LeftHand_dum2
      direction 0.000000 0.000000 0.000000
      length 0.000000
      axis 0.0 0.0 -90.0 xyz
   end
   begin
      id 29
      name LeftHandThumb1
      direction 0.000000 0.000000 1.000000
      length 3.937000
      axis 0.0 0.0 -90.0 xyz
      dof rx rz ry
   end
   begin
      id 30
      name Head
      direction 0.000000 1.000000 0.000000
      length 4.527550
      axis 0.0 0.0 0.0 xyz
      dof rx ry rz
   end
:hierarchy
   begin
      root RightUpLeg_dum LeftUpLeg_dum Spine_dum
      RightUpLeg_dum RightUpLeg
      LeftUpLeg_dum LeftUpLeg
      Spine_dum Spine
      RightUpLeg RightLeg
      RightLeg RightFoot
      RightFoot RightToeBase
      LeftUpLeg LeftLeg
      LeftLeg LeftFoot
      LeftFoot LeftToeBase
      Spine Spine_dum1 Spine_dum2 Spine_dum3
      Spine_dum1 RightShoulder
      Spine_dum2 LeftShoulder
      Spine_dum3 Head
      RightShoulder RightArm
      RightArm RightForeArm
      RightForeArm RightHand
      RightHand RightHand_dum1 RightHand_dum2
      RightHand_dum2 RightHandThumb1
      LeftShoulder LeftArm
      LeftArm LeftForeArm
      LeftForeArm LeftHand
      LeftHand LeftHand_dum1 LeftHand_dum2
      LeftHand_dum2 LeftHandThumb1
   end

# File created by Blade
# Date/Time:  Thu Jan 22 19:13:14 2015
# Frame Rate: 120.000 fps
#------------------------------------------------------
:FULLY-SPECIFIED
:DEGREES
184
root 2.088217 33.081841 -2.060189 6.868234 -25.720675 2.036346
RightUpLeg -18.000794 -29.070847 -3.757410
RightLeg 8.161053 -0.000000 -0.000000
RightFoot -8.510635 -10.072492 1.397740
RightToeBase -4.973076 -0.000000 0.000000
LeftUpLeg -3.170428 10.273371 -3.408287
LeftLeg 8.641330 -0.000000 -0.000000
LeftFoot -19.472568 15.604749 -13.377024
LeftToeBase 7.779567 -0.000000 -0.000000
Spine -6.501925 7.432472 -4.012768
RightShoulder -14.280109 -8.294736 -27.511660
RightArm 29.076523 16.280811 37.247617
RightForeArm -13.322573 -0.000000 15.919320
RightHand 10.418157 -0.000000 14.319843
RightHandThumb1 -24.326973 -0.000000 -32.862282
LeftShoulder -23.875517 9.758708 29.378281
LeftArm 13.064771 -27.477362 -36.307772
LeftForeArm 21.722745 -0.000000 3.043888
LeftHand -4.303750 0.000000 -10.319093
LeftHandThumb1 -26.253704 0.000000 33.147579
Head 6.029467 -1.012858 4.353793
185
root 2.079384 33.089935 -2.070902 6.927867 -26.171070 1.918342
RightUpLeg -18.285476 -29.714654 -3.370829
RightLeg 7.451947 -0.000000 -0.000000
RightFoot -7.391235 -10.478719 1.072891
RightToeBase -4.555297 -0.000000 0.000000
LeftUpLeg -3.116804 10.352105 -3.345633
LeftLeg 8.567256 -0.000000 -0.000000
LeftFoot -19.528843 15.943286 -13.298110
LeftToeBase 7.665596 -0.000000 -0.000000
Spine -6.536946 7.500865 -3.841084
RightShoulder -14.126877 -8.287600 -27.571014
RightArm 29.389416 16.146772 37.320425
RightForeArm -13.258461 -0.000000 16.130581
RightHand 10.376497 -0.000000 14.272624
RightHandThumb1 -24.326973 -0.000000 -32.862282
LeftShoulder -23.988671 9.886393 29.239112
LeftArm 13.041860 -27.453155 -36.449170
LeftForeArm 21.634233 -0.000000 2.984605
LeftHand -4.281288 -0.000000 -10.240343
LeftHandThumb1 -26.253704 0.000000 33.147579
Head 6.458979 -0.959931 4.072788
186
root 2.068944 33.096674 -2.085715 7.017686 -26.485793 1.832441
RightUpLeg -18.619282 -30.409140 -2.991513
RightLeg 6.815960 -0.000000 -0.000000
RightFoot -6.193511 -10.831989 0.596501
RightToeBase -4.059643 -0.000000 0.000000
LeftUpLeg -3.168514 10.321451 -3.301395
LeftLeg 8.585865 -0.000000 -0.000000
LeftFoot -19.592068 16.253609 -13.233114
LeftToeBase 7.595368 -0.000000 -0.000000
Spine -6.611043 7.479226 -3.712861
RightShoulder -13.984038 -8.240462 -27.624938
RightArm 29.613818 16.044893 37.405113
RightForeArm -13.307509 -0.000000 16.341171
RightHand 10.410229 -0.000000 14.331212
RightHandThumb1 -24.326973 -0.000000 -32.862282
LeftShoulder -24.042365 9.998377 29.161636
LeftArm 13.038624 -27.584201 -36.660160
LeftForeArm 21.677706 -0.000000 2.894381
LeftHand -4.178785 -0.000000 -10.372321
LeftHandThumb1 -26.253704 0.000000 33.147579
Head 6.905670 -0.988042 3.824124
187
root 2.054886 33.100758 -2.096407 7.086845 -26.768437 1.769768
RightUpLeg -18.895309 -30.973596 -2.691828
RightLeg 6.206566 -0.000000 -0.000000
RightFoot -4.863565 -11.260993 -0.122485
RightToeBase -3.732569 -0.000000 0.000000
LeftUpLeg -3.203702 10.294338 -3.263602
LeftLeg 8.609044 -0.000000 -0.000000
LeftFoot -19.646420 16.515709 -13.186917
LeftToeBase 7.469094 -0.000000 -0.000000
Spine -6.681281 7.437108 -3.598018
RightShoulder -13.861031 -8.139455 -27.692515
RightArm 29.792047 15.842614 37.446448
RightForeArm -13.215449 -0.000000 16.579564
RightHand 10.296262 -0.000000 14.300949
RightHandThumb1 -24.326973 -0.000000 -32.862282
LeftShoulder -24.019195 10.020010 29.121005
LeftArm 12.825274 -27.558107 -36.766295
LeftForeArm 21.639080 -0.000000 2.920871
LeftHand -4.116647 -0.000000 -10.454836
LeftHandThumb1 -26.253704 0.000000 33.147579
Head 7.354054 -1.034011 3.540613
188
root 2.040978 33.102286 -2.109028 7.139652 -26.983077 1.744928
RightUpLeg -19.135158 -31.395160 -2.494063
RightLeg 5.657416 -0.000000 -0.000000
RightFoot -3.490000 -11.664597 -0.368404
RightToeBase -3.251299 -0.000000 0.000000
LeftUpLeg -3.284168 10.259286 -3.253738
LeftLeg 8.709432 -0.000000 -0.000000
LeftFoot -19.723852 16.730829 -13.135218
LeftToeBase 7.416601 -0.000000 -0.000000
Spine -6.732985 7.365772 -3.517192
RightShoulder -13.748552 -7.984666 -27.774004
RightArm 29.885638 15.653960 37.494495
RightForeArm -13.095839 -0.000000 16.826375
RightHand 10.214128 -0.000000 14.370544
RightHandThumb1 -24.326973 -0.000000 -32.862282
LeftShoulder -24.055921 10.072342 29.065459
LeftArm 12.827202 -27.588669 -36.964727
LeftForeArm 21.672345 0.000000 2.840264
LeftHand -4.192130 -0.000000 -10.519583
LeftHandThumb1 -26.253704 0.000000 33.147579
Head 7.771741 -1.075727 3.262290
189
root 2.029125 33.102764 -2.130323 7.229790 -27.116653 1.747811
RightUpLeg -19.437792 -31.772552 -2.325916
RightLeg 5.204437 -0.000000 -0.000000
RightFoot -1.953822 -12.147288 -0.534710
RightToeBase -2.956436 -0.000000 0.000000
LeftUpLeg -3.487246 10.194903 -3.265886
LeftLeg 8.910455 -0.000000 -0.000000
LeftFoot -19.785361 16.902964 -13.047014
LeftToeBase 7.219750 -0.000000 -0.000000
Spine -6.796795 7.237364 -3.456476
RightShoulder -13.683376 -7.974991 -27.812632
RightArm 30.094002 15.673690 37.621794
RightForeArm -13.094754 -0.000000 17.054729
RightHand 10.274840 -0.000000 14.339197
RightHandThumb1 -24.326973 -0.000000 -32.862282
LeftShoulder -24.096366 10.124792 28.975159
LeftArm 12.843273 -27.651168 -37.152281
LeftForeArm 21.662797 -0.000000 2.822991
LeftHand -4.175079 -0.000000 -10.691398
LeftHandThumb1 -26.253704 0.000000 33.147579
Head 8.124353 -1.063049 3.007601
190
root 2.008832 33.099571 -2.141070 7.291598 -27.239120 1.741107
RightUpLeg -19.636114 -32.016371 -2.244421
RightLeg 4.778753 -0.000000 -0.000000
RightFoot -0.360175 -12.618246 -0.376164
RightToeBase -2.921594 -0.000000 0.000000
LeftUpLeg -3.615453 10.229796 -3.252603
LeftLeg 9.080285 -0.000000 -0.000000
LeftFoot -19.895056 16.931281 -13.051434
LeftToeBase 7.358354 -0.000000 -0.000000
Spine -6.867770 7.149601 -3.397682
RightShoulder -13.610666 -7.779782 -27.893674
RightArm 30.094243 15.517643 37.682602
RightForeArm -13.060466 -0.000000 17.335789
RightHand 10.168714 -0.000000 14.297464
RightHandThumb1 -24.326973 -0.000000 -32.862282
LeftShoulder -24.068470 10.140327 28.944865
LeftArm 12.809534 -27.672256 -37.344267
LeftForeArm 21.792960 -0.000000 2.805775
LeftHand -4.129749 -0.000000 -10.731842
LeftHandThumb1 -26.253704 0.000000 33.147579
Head 8.530421 -1.140149 2.756636
191
root 1.988596 33.094441 -2.148744 7.332009 -27.319568 1.792185
RightUpLeg -19.819767 -32.221871 -2.236404
RightLeg 4.432461 -0.000000 -0.000000
RightFoot 1.182969 -13.152140 -0.086134
RightToeBase -2.509322 -0.000000 0.000000
LeftUpLeg -3.748463 10.237891 -3.277721
LeftLeg 9.262877 -0.000000 -0.000000
LeftFoot -19.931367 16.963016 -12.965508
LeftToeBase 7.220605 -0.000000 -0.000000
Spine -6.940184 7.079125 -3.393906
RightShoulder -13.600462 -7.787315 -27.906705
RightArm 30.195898 15.543206 37.753383
RightForeArm -13.031879 -0.000000 17.595218
RightHand 10.205244 -0.000000 14.390209
RightHandThumb1 -24.326973 -0.000000 -32.862282
LeftShoulder -24.008972 10.129380 28.900771
LeftArm 12.791926 -27.592958 -37.477782
LeftForeArm 21.744457 0.000000 2.804644
LeftHand -4.231740 -0.000000 -10.835329
LeftHandThumb1 -26.253704 0.000000 33.147579
Head 8.908024 -1.258954 2.488304
192
root 1.965401 33.087941 -2.160679 7.374398 -27.373957 1.830668
RightUpLeg -19.945748 -32.274438 -2.311309
RightLeg 4.129796 -0.000000 -0.000000
RightFoot 2.762087 -13.673462 0.409786
RightToeBase -2.204369 -0.000000 0.000000
LeftUpLeg -3.900793 10.329448 -3.279893
LeftLeg 9.474256 -0.000000 -0.000000
LeftFoot -20.017029 16.871124 -12.985919
LeftToeBase 7.169135 -0.000000 -0.000000
Spine -6.987718 6.967589 -3.369272
RightShoulder -13.570724 -7.735127 -27.954323
RightArm 30.234082 15.496506 37.804305
RightForeArm -12.911893 -0.000000 17.897674
RightHand 10.149485 -0.000000 14.427745
RightHandThumb1 -24.326973 -0.000000 -32.862282
LeftShoulder -24.015261 10.227709 28.818741
LeftArm 12.888790 -27.610083 -37.708649
LeftForeArm 21.739229 -0.000000 2.836303
LeftHand -4.270432 -0.000000 -11.287267
LeftHandThumb1 -26.253704 0.000000 33.147579
Head 9.241661 -1.264029 2.237777
